<mxfile host="Electron" modified="2024-08-19T11:30:25.791Z" agent="Mozilla/5.0 (Windows NT 10.0; Win64; x64) AppleWebKit/537.36 (KHTML, like Gecko) draw.io/24.5.1 Chrome/124.0.6367.207 Electron/30.0.6 Safari/537.36" etag="mRqs2Mr0imcQRgl54V_K" version="24.5.1" type="device">
  <diagram name="Page-1" id="uAdB7FyLzO1YD-RBnfzG">
    <mxGraphModel dx="1416" dy="827" grid="0" gridSize="10" guides="1" tooltips="1" connect="1" arrows="1" fold="1" page="1" pageScale="1" pageWidth="850" pageHeight="1100" math="0" shadow="0">
      <root>
        <mxCell id="0" />
        <mxCell id="1" parent="0" />
        <mxCell id="gvZbPJzS_C0yxOW3h-49-41" value="" style="rounded=0;whiteSpace=wrap;html=1;" parent="1" vertex="1">
          <mxGeometry x="380" y="160" width="350" height="480" as="geometry" />
        </mxCell>
        <mxCell id="gvZbPJzS_C0yxOW3h-49-1" value="" style="rounded=0;whiteSpace=wrap;html=1;" parent="1" vertex="1">
          <mxGeometry x="50" y="210" width="230" height="350" as="geometry" />
        </mxCell>
        <mxCell id="gvZbPJzS_C0yxOW3h-49-2" value="User Registration and Authentication" style="rounded=0;whiteSpace=wrap;html=1;" parent="1" vertex="1">
          <mxGeometry x="50" y="210" width="230" height="40" as="geometry" />
        </mxCell>
        <mxCell id="gvZbPJzS_C0yxOW3h-49-3" value="Course Management" style="rounded=0;whiteSpace=wrap;html=1;" parent="1" vertex="1">
          <mxGeometry x="50" y="250" width="230" height="40" as="geometry" />
        </mxCell>
        <mxCell id="gvZbPJzS_C0yxOW3h-49-4" value="WebRTC Video Conferencing Integration" style="rounded=0;whiteSpace=wrap;html=1;" parent="1" vertex="1">
          <mxGeometry x="50" y="290" width="230" height="40" as="geometry" />
        </mxCell>
        <mxCell id="gvZbPJzS_C0yxOW3h-49-5" value="Chat and Messaging" style="rounded=0;whiteSpace=wrap;html=1;" parent="1" vertex="1">
          <mxGeometry x="50" y="330" width="230" height="40" as="geometry" />
        </mxCell>
        <mxCell id="gvZbPJzS_C0yxOW3h-49-6" value="Assignment submission and Grading" style="rounded=0;whiteSpace=wrap;html=1;" parent="1" vertex="1">
          <mxGeometry x="50" y="370" width="230" height="40" as="geometry" />
        </mxCell>
        <mxCell id="gvZbPJzS_C0yxOW3h-49-7" value="Notification System" style="rounded=0;whiteSpace=wrap;html=1;" parent="1" vertex="1">
          <mxGeometry x="50" y="410" width="230" height="40" as="geometry" />
        </mxCell>
        <mxCell id="gvZbPJzS_C0yxOW3h-49-8" value="System Scalability and Performance" style="rounded=0;whiteSpace=wrap;html=1;" parent="1" vertex="1">
          <mxGeometry x="50" y="450" width="230" height="40" as="geometry" />
        </mxCell>
        <mxCell id="gvZbPJzS_C0yxOW3h-49-9" value="Security and Privacy" style="rounded=0;whiteSpace=wrap;html=1;" parent="1" vertex="1">
          <mxGeometry x="50" y="490" width="230" height="40" as="geometry" />
        </mxCell>
        <mxCell id="gvZbPJzS_C0yxOW3h-49-10" value="Mobile Access" style="rounded=0;whiteSpace=wrap;html=1;" parent="1" vertex="1">
          <mxGeometry x="50" y="530" width="230" height="40" as="geometry" />
        </mxCell>
        <mxCell id="gvZbPJzS_C0yxOW3h-49-11" value="PRODUCT BACKLOG" style="text;html=1;align=center;verticalAlign=middle;whiteSpace=wrap;rounded=0;fontStyle=1;fontFamily=Times New Roman;fontSize=18;labelBackgroundColor=none;" parent="1" vertex="1">
          <mxGeometry x="55" y="160" width="220" height="40" as="geometry" />
        </mxCell>
        <mxCell id="gvZbPJzS_C0yxOW3h-49-13" value="" style="rounded=1;whiteSpace=wrap;html=1;" parent="1" vertex="1">
          <mxGeometry x="480" y="170" width="200" height="130" as="geometry" />
        </mxCell>
        <mxCell id="gvZbPJzS_C0yxOW3h-49-16" value="&lt;b&gt;&lt;font style=&quot;font-size: 14px;&quot;&gt;{ Sprint 1 }&lt;/font&gt;&lt;/b&gt;" style="text;html=1;align=center;verticalAlign=middle;resizable=0;points=[];autosize=1;strokeColor=none;fillColor=none;" parent="1" vertex="1">
          <mxGeometry x="390" y="220" width="90" height="30" as="geometry" />
        </mxCell>
        <mxCell id="gvZbPJzS_C0yxOW3h-49-17" value="User Registration and Authentication" style="rounded=0;whiteSpace=wrap;html=1;" parent="1" vertex="1">
          <mxGeometry x="490" y="190" width="180" height="40" as="geometry" />
        </mxCell>
        <mxCell id="gvZbPJzS_C0yxOW3h-49-18" value="Security and Privacy" style="rounded=0;whiteSpace=wrap;html=1;" parent="1" vertex="1">
          <mxGeometry x="490" y="240" width="180" height="40" as="geometry" />
        </mxCell>
        <mxCell id="gvZbPJzS_C0yxOW3h-49-19" value="" style="rounded=1;whiteSpace=wrap;html=1;" parent="1" vertex="1">
          <mxGeometry x="480" y="310" width="200" height="170" as="geometry" />
        </mxCell>
        <mxCell id="gvZbPJzS_C0yxOW3h-49-20" value="&lt;b&gt;&lt;font style=&quot;font-size: 14px;&quot;&gt;{ Sprint 2 }&lt;/font&gt;&lt;/b&gt;" style="text;html=1;align=center;verticalAlign=middle;resizable=0;points=[];autosize=1;strokeColor=none;fillColor=none;" parent="1" vertex="1">
          <mxGeometry x="390" y="360" width="90" height="30" as="geometry" />
        </mxCell>
        <mxCell id="gvZbPJzS_C0yxOW3h-49-23" value="Course Management" style="rounded=0;whiteSpace=wrap;html=1;" parent="1" vertex="1">
          <mxGeometry x="490" y="325" width="180" height="40" as="geometry" />
        </mxCell>
        <mxCell id="gvZbPJzS_C0yxOW3h-49-24" value="Assignment submission and Grading" style="rounded=0;whiteSpace=wrap;html=1;" parent="1" vertex="1">
          <mxGeometry x="490" y="380" width="180" height="40" as="geometry" />
        </mxCell>
        <mxCell id="gvZbPJzS_C0yxOW3h-49-33" value="" style="rounded=1;whiteSpace=wrap;html=1;" parent="1" vertex="1">
          <mxGeometry x="480" y="490" width="200" height="130" as="geometry" />
        </mxCell>
        <mxCell id="gvZbPJzS_C0yxOW3h-49-34" value="&lt;b&gt;&lt;font style=&quot;font-size: 14px;&quot;&gt;{ Sprint 3 }&lt;/font&gt;&lt;/b&gt;" style="text;html=1;align=center;verticalAlign=middle;resizable=0;points=[];autosize=1;strokeColor=none;fillColor=none;" parent="1" vertex="1">
          <mxGeometry x="390" y="540" width="90" height="30" as="geometry" />
        </mxCell>
        <mxCell id="gvZbPJzS_C0yxOW3h-49-37" value="WebRTC Video Conferencing Integration" style="rounded=0;whiteSpace=wrap;html=1;" parent="1" vertex="1">
          <mxGeometry x="490" y="510" width="180" height="40" as="geometry" />
        </mxCell>
        <mxCell id="gvZbPJzS_C0yxOW3h-49-38" value="System Scalability and Performance" style="rounded=0;whiteSpace=wrap;html=1;" parent="1" vertex="1">
          <mxGeometry x="490" y="560" width="180" height="40" as="geometry" />
        </mxCell>
        <mxCell id="gvZbPJzS_C0yxOW3h-49-39" value="System Scalability and Performance" style="rounded=0;whiteSpace=wrap;html=1;" parent="1" vertex="1">
          <mxGeometry x="490" y="430" width="180" height="40" as="geometry" />
        </mxCell>
        <mxCell id="gvZbPJzS_C0yxOW3h-49-42" value="" style="shape=flexArrow;endArrow=classic;html=1;rounded=0;exitX=1;exitY=0;exitDx=0;exitDy=0;" parent="1" source="gvZbPJzS_C0yxOW3h-49-6" edge="1">
          <mxGeometry width="50" height="50" relative="1" as="geometry">
            <mxPoint x="400" y="390" as="sourcePoint" />
            <mxPoint x="380" y="370" as="targetPoint" />
          </mxGeometry>
        </mxCell>
        <mxCell id="gvZbPJzS_C0yxOW3h-49-43" value="&lt;font face=&quot;Times New Roman&quot; style=&quot;font-size: 16px;&quot;&gt;&lt;b&gt;SPRINT PLANNING&lt;/b&gt;&lt;/font&gt;" style="text;html=1;align=center;verticalAlign=middle;resizable=0;points=[];autosize=1;strokeColor=none;fillColor=none;" parent="1" vertex="1">
          <mxGeometry x="480" y="128" width="170" height="30" as="geometry" />
        </mxCell>
      </root>
    </mxGraphModel>
  </diagram>
</mxfile>
